<svg xmlns="http://www.w3.org/2000/svg" xmlns:svg="http://www.w3.org/2000/svg" xmlns:xlink="http://www.w3.org/1999/xlink" id="Layer_1" width="2500" height="2500" version="1.1" viewBox="0 0 80 80"><metadata id="metadata3881"/><style id="style3834">.st0{clip-path:url(#SVGID_2_);fill:#f0bf1a}.st1{clip-path:url(#SVGID_4_);fill:#3ebeb0}.st2{clip-path:url(#SVGID_6_);fill:#07a5de}.st6{fill:none}</style><defs id="defs3837"><circle id="SVGID_1_" cx="40" cy="40" r="32"/></defs><clipPath id="SVGID_2_"><use id="use3839" overflow="visible" xlink:href="#SVGID_1_"/></clipPath><path id="path3842" d="M53.7 26H10c-1.1 0-2-.9-2-2V10c0-1.1.9-2 2-2h57c1.1 0 2 .9 2 2v.7C68.9 19.1 62.1 26 53.7 26z" class="st0" clip-path="url(#SVGID_2_)" style="fill:#000"/><defs id="defs3845"><circle id="SVGID_3_" cx="40" cy="40" r="32"/></defs><clipPath id="SVGID_4_"><use id="use3847" overflow="visible" xlink:href="#SVGID_3_"/></clipPath><path id="path3850" d="M69.1 72H8.2V54h45.7c8.4 0 15.2 6.8 15.2 15.2V72z" class="st1" clip-path="url(#SVGID_4_)" style="fill:#000"/><g id="g3860" style="fill:#000"><defs id="defs3853"><circle id="SVGID_5_" cx="40" cy="40" r="32"/></defs><clipPath id="SVGID_6_"><use id="use3855" overflow="visible" xlink:href="#SVGID_5_"/></clipPath><path id="path3858" d="M50.1 49H4.8V31h45.3c5 0 9 4 9 9s-4.1 9-9 9z" class="st2" clip-path="url(#SVGID_6_)" style="fill:#000"/></g><g id="g3870"><defs id="defs3863"><circle id="SVGID_7_" cx="40" cy="40" r="32"/></defs><clipPath id="SVGID_8_"><use id="use3865" overflow="visible" xlink:href="#SVGID_7_"/></clipPath></g><path id="path3876" d="M0 0h80v80H0z" class="st6"/></svg>